# xmcd CD database file
#
# Track frame offsets:
#	150
#	22870
#	42952
#	58775
#	77887
#	94440
#	111475
#	131147
#	152250
#	176400
#
# Disc length: 2544 seconds
#
# Revision: 1
# Processed by: cddbd v1.4PL0 Copyright (c) Steve Scherf et al.
# Submitted via: CDex 1.50
#
DISCID=7e09ee0a
DTITLE=黃大煒 - 讓每個人都心碎
DYEAR=1990
DGENRE=Blues
TTITLE0=讓每個人都心碎
TTITLE1=試著讓我愛妳
TTITLE2=寶貝別走(Baby Don't Go)
TTITLE3=尋找妳(To Find You)
TTITLE4=First Time
TTITLE5=陽光之吻
TTITLE6=I Get The Feel
TTITLE7=有什麼不能說
TTITLE8=Stop Girl
TTITLE9=House Of Gold
EXTD=YEAR: 1990
EXTT0=
EXTT1=
EXTT2=
EXTT3=
EXTT4=
EXTT5=
EXTT6=
EXTT7=
EXTT8=
EXTT9=
PLAYORDER=
